<mxfile host="app.diagrams.net" modified="2023-10-31T21:41:15.437Z" agent="Mozilla/5.0 (Windows NT 10.0; Win64; x64) AppleWebKit/537.36 (KHTML, like Gecko) Chrome/118.0.0.0 Safari/537.36" etag="t4mvFfON99EDGp-mqDGS" version="22.0.8" type="device">
  <diagram name="Page-1" id="N2BexS0rDZd5CpLKfAnO">
    <mxGraphModel dx="1434" dy="746" grid="1" gridSize="10" guides="1" tooltips="1" connect="1" arrows="1" fold="1" page="1" pageScale="1" pageWidth="850" pageHeight="1100" math="0" shadow="0">
      <root>
        <mxCell id="0" />
        <mxCell id="1" parent="0" />
        <mxCell id="mMuPUwK2q1DvX4jwgNQp-3" value="" style="rounded=0;whiteSpace=wrap;html=1;fillColor=#0099a7;gradientColor=#85c9d2;strokeColor=none;fontColor=#ffffff;" parent="1" vertex="1">
          <mxGeometry x="40" y="40" width="110" height="60" as="geometry" />
        </mxCell>
        <mxCell id="rSg9SiDLR9Dfzpl6YYFU-1" value="" style="rounded=0;whiteSpace=wrap;html=1;fillColor=#1b63ad;gradientColor=#6380c0;strokeColor=none;fontColor=#ffffff;" vertex="1" parent="1">
          <mxGeometry x="40" y="120" width="110" height="60" as="geometry" />
        </mxCell>
        <mxCell id="rSg9SiDLR9Dfzpl6YYFU-2" value="" style="rounded=0;whiteSpace=wrap;html=1;fillColor=#00a64c;gradientColor=#6ac38b;strokeColor=none;fontColor=#ffffff;" vertex="1" parent="1">
          <mxGeometry x="40" y="200" width="110" height="60" as="geometry" />
        </mxCell>
      </root>
    </mxGraphModel>
  </diagram>
</mxfile>
